<svg xmlns="http://www.w3.org/2000/svg" height="24" viewBox="0 -960 960 960" width="24"><path d="M700-220H600q-8.5 0-14.25-5.758-5.75-5.757-5.75-14.269t5.75-14.242Q591.5-260 600-260h100v-100q0-8.5 5.758-14.25 5.757-5.75 14.269-5.75t14.242 5.75Q740-368.5 740-360v100h100q8.5 0 14.25 5.758 5.75 5.757 5.75 14.269t-5.75 14.242Q848.5-220 840-220H740v100q0 8.5-5.758 14.25-5.757 5.75-14.269 5.75t-14.242-5.75Q700-111.5 700-120v-100Zm-475.385 20Q197-200 178.5-218.5 160-237 160-264.615v-430.77Q160-723 178.5-741.5 197-760 224.615-760h70.769v-67.692q0-9.154 6.224-15.347 6.223-6.192 15.423-6.192t15.315 6.192q6.115 6.193 6.115 15.347V-760h206.154v-69.231q0-8.5 5.758-14.25t14.27-5.75q8.511 0 14.242 5.75 5.731 5.75 5.731 14.25V-760h70.769Q683-760 701.5-741.5 720-723 720-695.385v228.616q-10-.693-20-.693t-20 .693v-68.616H200v270.77q0 9.23 7.692 16.923Q215.385-240 224.615-240h266.923q0 10 .693 20 .692 10 2.538 20H224.615ZM200-575.385h480v-120q0-9.23-7.692-16.923Q664.615-720 655.385-720h-430.77q-9.23 0-16.923 7.692Q200-704.615 200-695.385v120Zm0 0V-720v144.615Z"/></svg>