<svg xmlns="http://www.w3.org/2000/svg" height="40" viewBox="0 -960 960 960" width="40"><path d="M480-446.039 271.281-237.321q-7.23 7.231-17.05 7.34-9.821.109-16.91-7.314-7.449-7.423-7.295-16.897.154-9.474 7.269-16.589L446.039-480 237.295-689.219q-6.73-6.73-6.923-16.396-.192-9.667 6.923-17.09t16.743-7.506q9.628-.083 17.243 7.006L480-513.961l209.244-209.244q6.705-6.705 16.525-6.814 9.821-.109 17.436 7.314 6.923 7.423 6.769 16.897-.154 9.474-7.269 16.589L513.961-480l208.744 209.219q6.73 6.73 6.923 16.396.192 9.667-6.923 17.09t-16.743 7.506q-9.628.083-16.718-7.532L480-446.039Z"/></svg>