<svg xmlns="http://www.w3.org/2000/svg" height="40" viewBox="0 -960 960 960" width="40"><path d="M168.949-258.411q-10.23 0-17.217-7.026-6.987-7.026-6.987-17.314 0-9.762 6.987-16.653 6.987-6.89 17.217-6.89h622.627q9.705 0 16.692 7.025 6.987 7.026 6.987 16.788 0 10.288-6.987 17.179-6.987 6.891-16.692 6.891H168.949Zm0-197.885q-10.23 0-17.217-7.025-6.987-7.026-6.987-17.314 0-9.762 6.987-16.653 6.987-6.891 17.217-6.891h622.627q9.705 0 16.692 7.026t6.987 16.788q0 10.288-6.987 17.179-6.987 6.89-16.692 6.89H168.949Zm0-197.884q-10.23 0-17.217-7.026-6.987-7.026-6.987-17.313 0-9.763 6.987-16.653 6.987-6.891 17.217-6.891h622.627q9.705 0 16.692 7.026 6.987 7.025 6.987 16.788 0 10.287-6.987 17.178t-16.692 6.891H168.949Z"/></svg>