<svg xmlns="http://www.w3.org/2000/svg" height="24" viewBox="0 -960 960 960" width="24"><path d="M397.231-360 480-424l80.769 62.462-31.23-100.616 85.846-66.461H513.231L480-630.77l-33.231 102.155H344.615l83.846 66.461L397.231-360ZM184.615-200q-26.846 0-45.731-18.884Q120-237.769 120-264.615v-84.231q0-8.693 4.307-15.923 4.308-7.231 12.231-10.77 28.616-16.461 46.039-43.615Q200-446.308 200-480q0-33.692-17.423-60.846-17.423-27.154-46.039-43.615-7.923-3.539-12.231-10.77-4.307-7.23-4.307-15.923v-84.231q0-26.846 18.884-45.731Q157.769-760 184.615-760h590.77q26.846 0 45.731 18.884Q840-722.231 840-695.385v84.231q0 8.693-4.307 15.923-4.308 7.231-12.231 10.77-28.616 16.461-46.039 43.615Q760-513.692 760-480q0 33.692 17.423 60.846 17.423 27.154 46.039 43.615 7.923 3.539 12.231 10.77 4.307 7.23 4.307 15.923v84.231q0 26.846-18.884 45.731Q802.231-200 775.385-200h-590.77Zm0-40h590.77q10.769 0 17.692-6.923T800-264.615V-342q-37-22-58.5-58.5T720-480q0-43 21.5-79.5T800-618v-77.385q0-10.769-6.923-17.692T775.385-720h-590.77q-10.769 0-17.692 6.923T160-695.385V-618q37 22 58.5 58.5T240-480q0 43-21.5 79.5T160-342v77.385q0 10.769 6.923 17.692T184.615-240ZM480-480Z"/></svg>