<?xml version="1.0" encoding="UTF-8" standalone="no"?>
<!-- Created with Inkscape (http://www.inkscape.org/) -->

<svg
   width="54mm"
   height="54mm"
   viewBox="0 0 54 54"
   version="1.1"
   id="svg1"
   xml:space="preserve"
   inkscape:version="1.3.2 (091e20ef0f, 2023-11-25)"
   sodipodi:docname="t4.svg"
   xmlns:inkscape="http://www.inkscape.org/namespaces/inkscape"
   xmlns:sodipodi="http://sodipodi.sourceforge.net/DTD/sodipodi-0.dtd"
   xmlns="http://www.w3.org/2000/svg"
   xmlns:svg="http://www.w3.org/2000/svg"><sodipodi:namedview
     id="namedview1"
     pagecolor="#505050"
     bordercolor="#eeeeee"
     borderopacity="1"
     inkscape:showpageshadow="0"
     inkscape:pageopacity="0"
     inkscape:pagecheckerboard="0"
     inkscape:deskcolor="#505050"
     inkscape:document-units="mm"
     showguides="true"
     inkscape:zoom="1.4142136"
     inkscape:cx="352.84628"
     inkscape:cy="175.00893"
     inkscape:window-width="1904"
     inkscape:window-height="995"
     inkscape:window-x="26"
     inkscape:window-y="23"
     inkscape:window-maximized="0"
     inkscape:current-layer="g4" /><defs
     id="defs1" /><g
     inkscape:label="Layer 1"
     inkscape:groupmode="layer"
     id="layer1"
     transform="translate(-134.80996,-64.165317)"><g
       id="g4"><path
         id="path2-5"
         style="color:#000000;opacity:1;fill:#ffffff;stroke:#ffffff;stroke-width:0.9;stroke-linecap:round;stroke-linejoin:round;stroke-dasharray:none"
         d="m 161.13279,64.616211 c -1.13232,0.02619 -2.22691,0.623399 -2.83187,1.671216 -0.92184,1.596674 -0.36987,3.656693 1.2268,4.578532 1.59667,0.921839 3.65669,0.369875 4.57853,-1.226799 0.0424,-0.07342 0.0806,-0.148026 0.11679,-0.223242 5.13851,3.043833 7.59721,9.808869 8.3876,16.961239 0.81594,7.383565 -0.15861,15.123253 -1.52704,19.177643 a 0.60000002,0.60000002 0 0 0 0.37673,0.75964 0.60000002,0.60000002 0 0 0 0.75964,-0.37672 c 1.45911,-4.32305 2.41947,-12.118003 1.58233,-19.693372 -0.82451,-7.461132 -3.40758,-14.762941 -9.25886,-18.024223 0.0917,-1.244007 -0.51678,-2.494493 -1.66502,-3.15743 -0.54886,-0.316882 -1.15251,-0.460205 -1.74563,-0.446484 z m 0.12609,1.193726 c 0.34656,0.0099 0.69665,0.104196 1.02009,0.290938 1.03504,0.597579 1.38461,1.902771 0.78704,2.937805 -0.59758,1.035034 -1.9038,1.386162 -2.93884,0.788582 -1.03503,-0.597574 -1.38513,-1.904838 -0.78755,-2.939872 0.41083,-0.711585 1.15683,-1.099147 1.91926,-1.077453 z m -11.15022,9.640755 c -0.54302,-0.008 -1.08878,0.0059 -1.63091,0.04341 -2.16854,0.15013 -4.28406,0.681277 -5.9862,1.720825 -1.70214,1.039548 -2.97751,2.646497 -3.30677,4.828129 -0.32926,2.181631 0.25561,4.881914 2.0469,8.205184 a 0.60000002,0.60000002 0 0 0 0.81287,0.241846 0.60000002,0.60000002 0 0 0 0.24391,-0.812354 c -1.7139,-3.179707 -2.19333,-5.628622 -1.91771,-7.454842 0.27562,-1.826219 1.27552,-3.086649 2.74609,-3.98477 2.94113,-1.796239 7.8135,-1.914184 11.36313,-1.019576 a 0.60000002,0.60000002 0 0 0 0.72863,-0.435115 0.60000002,0.60000002 0 0 0 -0.43356,-0.728638 c -1.4301,-0.360426 -3.03734,-0.580189 -4.66638,-0.604097 z m 23.59959,0.46147 a 0.60000002,0.60000002 0 0 0 -0.61702,0.581877 0.60000002,0.60000002 0 0 0 0.58188,0.617533 c 3.61066,0.105567 5.97234,0.914219 7.41609,2.066024 1.44373,1.151806 2.03384,2.646632 2.07635,4.369242 0.085,3.445222 -2.24962,7.726611 -4.79919,10.353374 a 0.60000002,0.60000002 0 0 0 0.014,0.84801 0.60000002,0.60000002 0 0 0 0.84749,-0.01189 c 2.73917,-2.822107 5.23505,-7.231209 5.13664,-11.218953 -0.0492,-1.993872 -0.80226,-3.901232 -2.52698,-5.277197 -1.72472,-1.375965 -4.35554,-2.217691 -8.12922,-2.328024 z m -5.72833,0.611332 c -4.47343,0.8979 -11.7056,3.961753 -17.84749,8.474419 -6.04989,4.445071 -11.08155,10.333689 -10.97918,17.032547 -1.12296,0.5427 -1.90169,1.69477 -1.90169,3.02049 0,1.84368 1.50599,3.35122 3.34967,3.35122 1.84369,0 3.35121,-1.50754 3.35121,-3.35122 0,-1.84368 -1.50752,-3.35173 -3.35121,-3.35173 -0.0848,0 -0.16889,0.004 -0.25218,0.0103 0.0672,-5.971714 4.69529,-11.484306 10.49393,-15.744771 5.98638,-4.398409 13.17768,-7.423548 17.3731,-8.265646 a 0.60000002,0.60000002 0 0 0 0.4687,-0.706933 0.60000002,0.60000002 0 0 0 -0.70486,-0.468706 z m -6.24872,13.340271 a 2.5934789,2.5934789 0 0 0 -1.42006,0.344682 2.5934789,2.5934789 0 0 0 -0.9493,3.542936 2.5934789,2.5934789 0 0 0 3.54294,0.949297 2.5934789,2.5934789 0 0 0 0.94929,-3.542937 2.5934789,2.5934789 0 0 0 -2.12287,-1.293978 z m -16.77365,4.054017 a 0.60000002,0.60000002 0 0 0 -0.27854,0.139009 0.60000002,0.60000002 0 0 0 -0.0527,0.845427 c 3.01431,3.425145 9.28458,8.156252 16.26361,11.218952 6.87404,3.01663 14.48851,4.4284 20.23856,0.99116 1.03184,0.70213 2.41934,0.80152 3.56774,0.13849 1.59667,-0.92184 2.14864,-2.98186 1.2268,-4.57853 -0.92184,-1.59668 -2.98134,-2.14812 -4.57802,-1.22629 -1.59667,0.92184 -2.14863,2.98135 -1.22679,4.57802 0.0423,0.0732 0.0875,0.14362 0.13435,0.21239 -5.20527,2.92824 -12.29272,1.67677 -18.88205,-1.21491 -6.80233,-2.98516 -13.0165,-7.699711 -15.84348,-10.911999 a 0.60000002,0.60000002 0 0 0 -0.56947,-0.191719 z m 38.0075,8.277528 c 0.76193,-0.0214 1.50688,0.36639 1.91771,1.07797 0.59758,1.03504 0.24801,2.33971 -0.78703,2.93729 -1.03503,0.59758 -2.34178,0.24904 -2.93936,-0.786 -0.59757,-1.03503 -0.24593,-2.34074 0.7891,-2.93832 0.32345,-0.18674 0.67325,-0.28121 1.01958,-0.29094 z m -42.36382,0.70487 c 1.19516,0 2.15232,0.95562 2.15232,2.15077 0,1.19516 -0.95716,2.15026 -2.15232,2.15026 -1.19515,0 -2.15078,-0.9551 -2.15078,-2.15026 0,-1.19515 0.95563,-2.15077 2.15078,-2.15077 z m 10.94507,2.92644 a 0.60000002,0.60000002 0 0 0 -0.31058,0.005 0.60000002,0.60000002 0 0 0 -0.41186,0.74053 c 1.07443,3.78323 3.64158,8.14965 7.14427,10.0583 1.75134,0.95432 3.78184,1.25525 5.83582,0.44958 2.05397,-0.80567 4.09785,-2.66215 6.08024,-5.87509 a 0.60000002,0.60000002 0 0 0 -0.19533,-0.82631 0.60000002,0.60000002 0 0 0 -0.82424,0.19534 c -1.89676,3.07414 -3.78057,4.71441 -5.49992,5.38882 -1.71937,0.67442 -3.30937,0.43795 -4.82245,-0.38654 -3.02616,-1.64898 -5.5644,-5.81088 -6.56446,-9.33225 a 0.60000002,0.60000002 0 0 0 -0.43149,-0.41754 z" /></g></g></svg>
